<?xml version="1.0" encoding="UTF-8"?>
<svg width="200" height="60" viewBox="0 0 200 60" xmlns="http://www.w3.org/2000/svg">
  
  <!-- DNA ساده مشکی -->
  <g transform="translate(8, 18)">
    <path d="M 0 8 C 4 4, 8 12, 12 8 C 16 4, 20 12, 24 8" 
          stroke="#000000" stroke-width="2.5" fill="none"/>
    <path d="M 0 16 C 4 20, 8 12, 12 16 C 16 20, 20 12, 24 16" 
          stroke="#000000" stroke-width="2.5" fill="none"/>
    
    <!-- اتصالات -->
    <line x1="6" y1="6.8" x2="6" y2="17.2" stroke="#000000" stroke-width="1"/>
    <line x1="12" y1="8" x2="12" y2="16" stroke="#000000" stroke-width="1"/>
    <line x1="18" y1="6.8" x2="18" y2="17.2" stroke="#000000" stroke-width="1"/>
  </g>
  
  <!-- متن اصلی -->
  <text x="40" y="28" font-family="Arial, Helvetica, sans-serif" 
        font-size="20" font-weight="bold" fill="#000000">BIOTAK</text>
  
  <!-- خط تاکیدی -->
  <rect x="40" y="33" width="65" height="1.5" fill="#000000"/>
  
  <!-- متن فرعی -->
  <text x="40" y="45" font-family="Arial, Helvetica, sans-serif" 
        font-size="8" fill="#666666">BIOTECHNOLOGY SOLUTIONS</text>
  
  <!-- المان برگ ساده -->
  <g transform="translate(160, 15)">
    <path d="M 12 8 C 20 4, 24 12, 20 20 C 16 24, 8 20, 12 8" 
          fill="#000000"/>
    <path d="M 12 8 Q 16 12, 20 20" stroke="#ffffff" stroke-width="0.5" fill="none"/>
  </g>
  
</svg>
